ffmpeg started on 2016-11-27 at 18:57:05
Report written to "Output/NVENCh264/results/ffmpeg/sintelllhp1500k.log"
Command line:
Tools/ffmpeg/ffmpeg -benchmark -y -i Input/y4m/sintel.y4m -c:v h264_nvenc -preset llhp -b:v 1500k -an Output/NVENCh264/encoded/sintelllhp1500k.mkv
ffmpeg version N-82227-gdb23fde Copyright (c) 2000-2016 the FFmpeg developers
  built with gcc 5.4.0 (Ubuntu 5.4.0-6ubuntu1~16.04.2) 20160609
  configuration: --prefix=/home/jaroslav/ffmpeg_build --pkg-config-flags=--static --extra-cflags=-I/home/jaroslav/ffmpeg_build/include --extra-ldflags=-L/home/jaroslav/ffmpeg_build/lib --bindir=/home/jaroslav/bin --enable-gpl --enable-libass --enable-libfdk-aac --enable-libfreetype --enable-libmp3lame --enable-libopus --enable-libtheora --enable-libvorbis --enable-libvpx --enable-libx264 --enable-libx265 --enable-nvenc --enable-libmfx --enable-libxvid --enable-libgsm --enable-libopencore-amrnb --enable-version3 --enable-nonfree
  libavutil      55. 35.100 / 55. 35.100
  libavcodec     57. 66.101 / 57. 66.101
  libavformat    57. 57.100 / 57. 57.100
  libavdevice    57.  2.100 / 57.  2.100
  libavfilter     6. 66.100 /  6. 66.100
  libswscale      4.  3.100 /  4.  3.100
  libswresample   2.  4.100 /  2.  4.100
  libpostproc    54.  2.100 / 54.  2.100
Input #0, yuv4mpegpipe, from 'Input/y4m/sintel.y4m':
  Duration: 00:00:20.83, start: 0.000000, bitrate: 2057307 kb/s
    Stream #0:0: Video: rawvideo (I420 / 0x30323449), yuv420p(progressive), 4096x1744, SAR 1:1 DAR 256:109, 24 fps, 24 tbr, 24 tbn, 24 tbc
[h264_nvenc @ 0x2ab31c0] The variable bitrate rate-control requires the 'qmin' and/or 'qmax' option set.
Output #0, matroska, to 'Output/NVENCh264/encoded/sintelllhp1500k.mkv':
  Metadata:
    encoder         : Lavf57.57.100
    Stream #0:0: Video: h264 (h264_nvenc) (Main) (H264 / 0x34363248), yuv420p, 4096x1744 [SAR 1:1 DAR 256:109], q=-1--1, 1500 kb/s, 24 fps, 1k tbn, 24 tbc
    Metadata:
      encoder         : Lavc57.66.101 h264_nvenc
    Side data:
      cpb: bitrate max/min/avg: 0/0/1500000 buffer size: 3000000 vbv_delay: -1
Stream mapping:
  Stream #0:0 -> #0:0 (rawvideo (native) -> h264 (h264_nvenc))
Press [q] to stop, [?] for help
frame=   19 fps=0.0 q=0.0 size=       0kB time=00:00:00.00 bitrate=N/A speed=   0x    frame=   40 fps= 39 q=49.0 size=       1kB time=00:00:00.37 bitrate=  15.9kbits/s speed=0.367x    frame=   61 fps= 40 q=49.0 size=       1kB time=00:00:01.25 bitrate=   4.8kbits/s speed=0.816x    frame=   82 fps= 40 q=49.0 size=       1kB time=00:00:02.12 bitrate=   2.8kbits/s speed=1.04x    frame=  103 fps= 40 q=49.0 size=       1kB time=00:00:03.00 bitrate=   2.0kbits/s speed=1.18x    frame=  124 fps= 40 q=49.0 size=       1kB time=00:00:03.87 bitrate=   1.5kbits/s speed=1.27x    frame=  145 fps= 41 q=49.0 size=       1kB time=00:00:04.75 bitrate=   1.3kbits/s speed=1.33x    frame=  166 fps= 41 q=49.0 size=    1351kB time=00:00:05.62 bitrate=1967.4kbits/s speed=1.37x    frame=  174 fps= 32 q=49.0 size=    1351kB time=00:00:05.95 bitrate=1857.4kbits/s speed=1.08x    frame=  175 fps= 19 q=49.0 size=    1351kB time=00:00:06.00 bitrate=1844.4kbits/s speed=0.665x    frame=  176 fps= 15 q=49.0 size=    1351kB time=00:00:06.04 bitrate=1831.6kbits/s speed=0.506x    frame=  177 fps= 13 q=49.0 size=    1351kB time=00:00:06.08 bitrate=1819.3kbits/s speed=0.442x    frame=  198 fps= 14 q=49.0 size=    1351kB time=00:00:06.95 bitrate=1590.5kbits/s speed=0.487x    frame=  219 fps= 15 q=49.0 size=    1351kB time=00:00:07.83 bitrate=1412.9kbits/s speed=0.529x    frame=  240 fps= 16 q=49.0 size=    1351kB time=00:00:08.70 bitrate=1270.9kbits/s speed=0.568x    frame=  261 fps= 16 q=49.0 size=    1351kB time=00:00:09.58 bitrate=1154.9kbits/s speed=0.605x    frame=  282 fps= 17 q=49.0 size=    2612kB time=00:00:10.45 bitrate=2045.6kbits/s speed=0.64x    frame=  303 fps= 18 q=49.0 size=    2823kB time=00:00:11.33 bitrate=2040.7kbits/s speed=0.672x    frame=  324 fps= 19 q=49.0 size=    2823kB time=00:00:12.20 bitrate=1894.5kbits/s speed=0.703x    frame=  345 fps= 19 q=49.0 size=    2823kB time=00:00:13.08 bitrate=1767.8kbits/s speed=0.732x    frame=  366 fps= 20 q=49.0 size=    2823kB time=00:00:13.95 bitrate=1657.0kbits/s speed=0.759x    frame=  387 fps= 20 q=49.0 size=    2823kB time=00:00:14.83 bitrate=1559.2kbits/s speed=0.785x    frame=  408 fps= 21 q=49.0 size=    2823kB time=00:00:15.70 bitrate=1472.4kbits/s speed=0.809x    frame=  429 fps= 22 q=49.0 size=    3439kB time=00:00:16.58 bitrate=1698.6kbits/s speed=0.832x    frame=  450 fps= 22 q=49.0 size=    3628kB time=00:00:17.45 bitrate=1702.4kbits/s speed=0.854x    frame=  462 fps= 22 q=49.0 size=    3628kB time=00:00:17.95 bitrate=1655.0kbits/s speed=0.856x    frame=  483 fps= 22 q=49.0 size=    3628kB time=00:00:18.83 bitrate=1578.2kbits/s speed=0.877x    frame=  500 fps= 23 q=49.0 Lsize=    4069kB time=00:00:20.79 bitrate=1603.1kbits/s speed=0.948x    
video:4065kB audio:0kB subtitle:0kB other streams:0kB global headers:0kB muxing overhead: 0.107201%
bench: utime=0.892s
bench: maxrss=1187788kB
